<?xml version="1.0" encoding="UTF-8" standalone="no"?>
<svg
   version="1.1"
   x="0px"
   y="0px"
   viewBox="-461 335 137.33051 157.44325"
   xml:space="preserve"
   id="svg4"
   sodipodi:docname="logo.svg"
   inkscape:version="1.1.2 (08b2f3d93c, 2022-04-05)"
   width="137.33051"
   height="157.44325"
   inkscape:export-filename="/home/catherine/Documents/epiplots/man/figures/logo.png"
   inkscape:export-xdpi="200"
   inkscape:export-ydpi="200"
   xmlns:inkscape="http://www.inkscape.org/namespaces/inkscape"
   xmlns:sodipodi="http://sodipodi.sourceforge.net/DTD/sodipodi-0.dtd"
   xmlns="http://www.w3.org/2000/svg"
   xmlns:svg="http://www.w3.org/2000/svg"><defs
     id="defs8"><clipPath
       clipPathUnits="userSpaceOnUse"
       id="clipPath937"><rect
         style="fill:#7f7f7f;stroke:#0000a0;stroke-width:4.1348;stroke-linejoin:round"
         id="rect939"
         width="191.82005"
         height="60.685112"
         x="-264.99911"
         y="-75.362549" /></clipPath><clipPath
       clipPathUnits="userSpaceOnUse"
       id="clipPath1205"><rect
         style="fill:#7f7f7f;stroke:#0000a0;stroke-width:4.1348;stroke-linejoin:round"
         id="rect1207"
         width="227.4493"
         height="116.42313"
         x="190.47174"
         y="-610.63934" /></clipPath><clipPath
       clipPathUnits="userSpaceOnUse"
       id="clipPath1205-7"><rect
         style="fill:#7f7f7f;stroke:#0000a0;stroke-width:4.1348;stroke-linejoin:round"
         id="rect1207-1"
         width="227.4493"
         height="116.42313"
         x="190.47174"
         y="-610.63934" /></clipPath></defs><sodipodi:namedview
     id="namedview6"
     pagecolor="#ffffff"
     bordercolor="#666666"
     borderopacity="1.0"
     inkscape:pageshadow="2"
     inkscape:pageopacity="0.0"
     inkscape:pagecheckerboard="0"
     showgrid="false"
     inkscape:zoom="3.2703689"
     inkscape:cx="-26.296728"
     inkscape:cy="35.011341"
     inkscape:window-width="2537"
     inkscape:window-height="2096"
     inkscape:window-x="72"
     inkscape:window-y="27"
     inkscape:window-maximized="0"
     inkscape:current-layer="svg4"
     fit-margin-top="0"
     fit-margin-left="0"
     fit-margin-right="0"
     fit-margin-bottom="0" /><path
     sodipodi:type="star"
     style="fill:#ffffff;stroke:#000000;stroke-width:6.5;stroke-linejoin:round;stroke-miterlimit:4;stroke-dasharray:none;stroke-opacity:1"
     id="path891"
     inkscape:flatsided="true"
     sodipodi:sides="6"
     sodipodi:cx="-48.832626"
     sodipodi:cy="-39.528706"
     sodipodi:r1="75.471756"
     sodipodi:r2="38.159691"
     sodipodi:arg1="0.52214479"
     sodipodi:arg2="1.0457436"
     inkscape:rounded="0"
     inkscape:randomized="0"
     transform="translate(-343.50212,453.25033)"
     inkscape:transform-center-x="4.2141042"
     inkscape:transform-center-y="-3.1627129"
     inkscape:export-filename="/home/catherine/Documents/epiplots/man/figures/logo.svg"
     inkscape:export-xdpi="200"
     inkscape:export-ydpi="200"
     d="m 16.58263,-1.8879006 -65.305522,37.8308716 -65.415258,-37.6408054 -0.10973,-75.4716766 65.305519,-37.830869 65.415256,37.640803 z" /><g
     id="g1086"
     transform="matrix(0.75351937,0,0,0.65276587,-322.55727,322.42733)"
     inkscape:export-filename="/home/catherine/Documents/epiplots/man/figures/logo.svg"
     inkscape:export-xdpi="200"
     inkscape:export-ydpi="200"><path
       d="m -115.23486,113.39019 h 7.52379 c 0.80772,0 1.58237,0.17605 2.15347,0.48945 0.57107,0.31356 0.89216,0.73853 0.89216,1.18179 v 15.64639 c 0,0.44327 -0.32109,0.86855 -0.89216,1.18195 -0.57137,0.31356 -1.34605,0.48961 -2.15376,0.48961 h -7.52233 c -0.80801,0 -1.58237,-0.17605 -2.15376,-0.48945 -0.57107,-0.31355 -0.89187,-0.73852 -0.89187,-1.18194 v -15.6468 c 0,-0.44326 0.3208,-0.86822 0.89187,-1.18163 0.57108,-0.3134 1.34546,-0.48945 2.15317,-0.48945 z"
       id="path853"
       style="fill:#000000;stroke-width:0.0539349" /><path
       d="m -95.884806,82.104806 h 7.499767 c 0.810843,0 1.58834,0.322226 2.161689,0.895589 0.573349,0.573363 0.895589,1.350919 0.895589,2.16198 v 44.159145 c 0,0.81113 -0.322226,1.58863 -0.895589,2.16227 -0.573633,0.57335 -1.35121,0.89559 -2.162271,0.89559 h -7.499039 c -0.810843,0 -1.588631,-0.32223 -2.16198,-0.89559 -0.573349,-0.57336 -0.895298,-1.35092 -0.895298,-2.16198 V 85.161938 c 0,-0.810842 0.321942,-1.58834 0.895298,-2.161689 0.573356,-0.573348 1.350919,-0.895297 2.161689,-0.895297 z"
       id="path855"
       style="fill:#000000;stroke-width:0.0728062" /><path
       d="m -76.72783,91.694549 h 7.526705 c 0.80713,0 1.581569,0.320798 2.152297,0.891584 0.570786,0.570786 0.891294,1.344949 0.891294,2.152297 v 34.59678 c 0,0.80742 -0.320515,1.58157 -0.891585,2.15259 -0.570786,0.57078 -1.34524,0.89158 -2.152297,0.89158 h -7.525977 c -0.80742,0 -1.581569,-0.3208 -2.152297,-0.89158 -0.570786,-0.57079 -0.891584,-1.34495 -0.891584,-2.15208 V 94.738212 c 0,-0.80713 0.320514,-1.581278 0.891293,-2.152079 0.570786,-0.570786 1.344949,-0.891293 2.152079,-0.891293 z"
       id="path857"
       style="fill:#000000;stroke-width:0.0728062" /><path
       d="m -57.556897,105.94585 h 7.526705 v 0 c 0.80742,0 1.581569,0.3208 2.152296,0.89159 0.571078,0.57078 0.891585,1.34495 0.891585,2.15208 v 20.34569 c 0,0.80742 -0.320798,1.58157 -0.891585,2.15259 -0.570786,0.57078 -1.34524,0.89158 -2.152588,0.89158 h -7.526261 c -0.80713,0 -1.581569,-0.3208 -2.152297,-0.89158 -0.570786,-0.57079 -0.891585,-1.34495 -0.891585,-2.15208 V 108.9893 c 0,-0.80713 0.320799,-1.58128 0.891585,-2.15208 0.570786,-0.57079 1.344658,-0.89129 2.152078,-0.89129 z"
       id="path861"
       style="fill:#000000;stroke-width:0.0728062" /><path
       d="m -134.39207,101.36176 h 7.14921 v 0 c 0.7669,0 1.50218,0.37643 2.04435,1.0462 0.54246,0.66978 0.84689,1.5782 0.84689,2.5253 v 23.87403 c 0,0.94744 -0.30471,1.85584 -0.84689,2.52589 -0.54217,0.66978 -1.27783,1.0462 -2.04464,1.0462 h -7.14883 c -0.76662,0 -1.50218,-0.37642 -2.04435,-1.0462 -0.54218,-0.66978 -0.84689,-1.57819 -0.84689,-2.52529 V 104.933 c 0,-0.9471 0.30471,-1.85551 0.84689,-2.52529 0.54217,-0.66976 1.27725,-1.04586 2.04416,-1.04586 z"
       id="path861-0"
       style="fill:#000000;stroke-width:0.0768637" /></g><path
     d="m 398.28437,-489.48581 c -1.25659,0 -2.30381,0.41863 -3.35108,1.04726 -2.51309,2.09454 -5.65489,3.1418 -8.7967,3.1418 l -16.96556,-0.20931 c -3.14181,0 -5.6549,-2.51309 -6.07433,-5.44561 v -0.62864 c -0.41863,-3.14181 1.67591,-6.07433 4.60763,-6.70217 l 0.83795,-0.20931 c 2.72325,-0.62864 5.6549,-0.62864 8.37814,0.41863 0.83795,0.20931 1.67591,0.20931 2.5131,0 2.09453,-1.04727 2.93252,-3.56036 1.88525,-5.6549 -0.83795,-1.4659 -2.30381,-2.51309 -3.97979,-2.30382 -0.83795,0.20932 -1.4659,0.62864 -2.09453,1.25659 -1.88526,2.09453 -4.39836,3.56036 -7.1216,4.18907 l -0.83795,0.20931 c -3.14181,0.62864 -6.07433,-0.83795 -7.33088,-3.77051 l -0.20931,-0.41863 c -1.04727,-2.93252 0,-6.28361 2.72324,-7.74943 l 17.17485,-9.63469 c 2.93252,-1.67591 6.49288,-2.30381 10.05411,-1.4659 1.67592,0.41863 3.35109,0.20932 4.81779,-0.62864 3.35108,-1.88525 4.39835,-6.07432 2.51308,-9.42541 -1.88525,-3.35108 -6.07432,-4.39835 -9.42541,-2.51309 -1.46588,0.83796 -2.51308,2.09454 -3.1418,3.77051 -1.04727,3.35109 -3.35107,6.07433 -6.49288,7.74944 l -15.08031,8.37814 c -3.77051,2.30381 -8.7967,1.25658 -11.51994,-2.09454 -2.09454,-2.51309 -4.39835,-4.81778 -6.91232,-6.91231 -3.35108,-2.93253 -4.18907,-7.95959 -1.88525,-11.72923 l 7.54015,-12.35793 c 1.67591,-2.72325 4.39835,-4.81778 7.33087,-5.86505 1.25658,-0.41863 2.09454,-1.25658 2.72325,-2.30382 0.83795,-1.25658 1.04727,-2.72324 0.62864,-4.18907 -0.41863,-1.46589 -1.25658,-2.72324 -2.51309,-3.35108 -2.5131,-1.25658 -5.6549,-0.62864 -7.1216,1.88526 -0.62864,1.04727 -1.04727,2.30381 -0.83795,3.77051 0.41862,3.1418 -0.20932,6.49289 -1.88526,9.42541 l -8.58742,14.45247 c -1.67591,2.72325 -5.02706,3.77051 -7.95959,2.51309 h -0.20931 c -2.93252,-1.25658 -4.39835,-4.39835 -3.56036,-7.33087 l 0.62864,-2.30382 c 0.83795,-2.93252 2.51309,-5.65489 5.02706,-7.54015 2.30381,-1.88526 2.72324,-5.02706 1.04727,-7.33087 -0.62864,-0.83796 -1.4659,-1.4659 -2.5131,-1.88526 -2.72324,-0.83795 -5.86505,0.62864 -6.70216,3.35108 v 0.20932 c -0.41863,1.04726 -0.41863,2.30381 0,3.35108 1.04727,2.72325 1.25658,5.86505 0.41863,8.7967 l -0.83796,2.51309 c -0.83795,2.93253 -3.77051,4.81778 -6.91231,4.39835 h -0.41863 c -3.14181,-0.41862 -5.44562,-3.1418 -5.44562,-6.2836 l 0.20931,-16.96557 c 0,-3.35108 1.25659,-6.49288 3.35109,-9.00685 1.04658,-1.46589 1.46521,-2.72254 1.46521,-3.97979 0,-2.93252 -2.51309,-5.44562 -5.44562,-5.23634 -1.25658,0 -2.72324,0.62864 -3.56036,1.4659 -1.04727,1.04726 -1.6759,2.30381 -1.6759,3.77051 0,1.25658 0.41862,2.51309 1.04726,3.35108 2.09454,2.5131 3.14181,5.6549 3.14181,8.7967 l -0.20932,16.96557 c 0,3.1418 -2.51309,5.65489 -5.65489,6.07432 h -0.62864 c -3.14181,0.41863 -6.07433,-1.6759 -6.70217,-4.60763 l -0.20931,-0.83795 c -0.62864,-2.72325 -0.62864,-5.6549 0.41862,-8.37814 0.20932,-0.83796 0.20932,-1.67591 0,-2.5131 -0.62864,-2.09453 -2.72324,-3.35108 -4.81778,-2.93252 -1.04726,0.20931 -2.09453,0.83795 -2.72324,1.88526 -0.62864,1.04726 -0.83795,2.09453 -0.41863,3.1418 0.20931,0.83795 0.62864,1.46589 1.25658,2.09454 2.09454,1.88525 3.56036,4.39834 4.18907,7.12159 l 0.20932,0.83795 c 0.62864,2.93253 -0.83796,5.86505 -3.56036,7.1216 l -0.83796,0.41863 c -2.93252,1.04727 -6.2836,0 -7.74943,-2.72325 l -8.16886,-14.66175 c -1.67591,-2.93252 -2.30382,-6.2836 -1.67591,-9.42541 0.62864,-2.93252 -1.4659,-5.65489 -4.39835,-6.2836 -2.93253,-0.62864 -5.6549,1.46589 -6.28361,4.39835 -0.20931,1.25658 0,2.51309 0.62864,3.56036 0.62864,1.04727 1.4659,1.88525 2.72325,2.30381 2.93252,1.25658 5.44562,3.35108 7.12159,6.07433 l 7.1216,12.77649 c 2.09453,3.97979 1.25658,8.7967 -2.30382,11.51995 -2.51309,2.09453 -5.02706,4.39835 -7.12159,6.91231 -2.93253,3.35109 -7.74943,4.18907 -11.72923,1.88526 l -13.4052,-8.16886 c -2.93252,-1.67591 -5.02706,-4.39835 -6.07433,-7.54016 -0.41862,-1.25658 -1.46589,-2.51309 -2.72324,-3.1418 -1.4659,-0.83795 -3.1418,-1.04727 -4.60763,-0.62864 -1.67591,0.41863 -2.93252,1.4659 -3.77051,2.72325 -1.67591,2.93252 -0.83796,6.70216 2.09453,8.37814 1.25659,0.83795 2.72325,1.04727 4.18907,0.83795 3.35109,-0.62864 6.70217,0 9.42541,1.67591 l 15.70902,9.42541 c 2.72325,1.67591 3.77051,5.02706 2.51309,7.74943 l -0.20931,0.41863 c -1.25658,2.93252 -4.39835,4.39835 -7.33087,3.56036 l -0.83796,-0.20931 c -2.72324,-0.83796 -5.23634,-2.30382 -7.12159,-4.60763 -1.67591,-1.67591 -4.39835,-1.4659 -5.86505,0.20931 -1.04727,1.25658 -1.4659,2.93253 -0.83796,4.39835 0.41863,1.04727 1.4659,1.88526 2.5131,2.09454 0.83795,0.20931 1.67591,0.20931 2.51309,0 2.72325,-0.83796 5.6549,-0.83796 8.37814,-0.20932 l 0.83796,0.20932 c 2.93252,0.83795 4.81778,3.77051 4.39835,6.91231 l -0.41795,1.25727 c -0.41863,3.1418 -3.1418,5.44561 -6.28361,5.23634 l -16.96556,-0.20932 c -3.1418,0 -6.28361,-1.25658 -8.7967,-3.35108 -1.04727,-0.83795 -2.09454,-1.25658 -3.35108,-1.25658 -2.93253,0 -5.44562,2.30381 -5.44562,5.23633 0,2.93253 2.30382,5.44562 5.23634,5.44562 1.25658,0 2.51309,-0.41863 3.35108,-1.04726 2.51309,-2.09454 5.6549,-3.14181 8.7967,-3.14181 l 14.45247,0.20931 c 4.39835,0 8.16886,3.35109 8.7967,7.74944 0.41863,3.14181 1.25658,6.49288 2.30382,9.42541 1.46589,4.18907 -0.20932,8.7967 -4.18908,11.10138 l -13.82375,7.54016 c -2.93253,1.6759 -6.28361,2.30382 -9.63469,1.4659 -3.14181,-0.62865 -6.28361,1.25658 -7.1216,4.39834 -0.41863,1.4659 -0.20931,3.1418 0.41863,4.60764 1.67591,2.93252 5.44562,3.97979 8.37814,2.3038 1.25658,-0.62863 2.30381,-1.88525 2.72325,-3.35107 1.25658,-3.1418 3.35108,-5.86505 6.2836,-7.33087 l 15.9183,-8.79671 c 2.72324,-1.46589 6.07433,-0.83795 7.95958,1.67591 l 0.20932,0.41862 c 1.88525,2.51311 1.6759,6.07434 -0.62864,8.16887 l -0.62864,0.62864 c -2.09454,2.09454 -4.60763,3.35109 -7.54016,3.77052 -0.83795,0.20931 -1.67591,0.62863 -2.30381,1.25658 -1.4659,1.88525 -1.25658,4.39835 0.62864,5.86505 0.62864,0.62863 1.46589,0.83795 2.30381,0.83795 1.04727,0 2.30382,-0.41863 3.14181,-1.25658 0.62864,-0.62864 1.04726,-1.25658 1.25658,-2.09454 0.62864,-2.72325 2.09453,-5.23634 4.18907,-7.33087 l 0.62864,-0.62864 c 2.30381,-2.09454 5.86505,-2.30382 8.16886,-0.41863 l 0.62864,0.41863 c 2.30382,1.88525 2.93252,5.23634 1.4659,7.95958 l -9.42541,15.70902 c -1.67591,2.72325 -4.39835,4.81778 -7.54016,5.86505 -1.46589,0.41863 -2.72324,1.6759 -3.56036,2.93252 -1.46589,2.72325 -0.41863,6.07434 2.09454,7.95959 2.72324,1.88525 6.70216,1.04727 8.37814,-1.67591 0,0 0,-0.20932 0.20931,-0.20932 0.83796,-1.25658 1.04727,-2.72323 0.83796,-4.18907 -0.62864,-3.35107 0,-6.70216 1.67591,-9.42541 l 9.42541,-15.91829 c 1.6759,-2.72325 5.02705,-3.77052 7.74943,-2.5131 2.93252,1.25659 4.39835,4.39835 3.56036,7.33088 l -0.41863,1.67591 c -0.83795,2.72324 -2.51309,5.23634 -4.81778,7.12159 -0.83795,0.62864 -1.25658,1.4659 -1.67591,2.51309 -0.62864,2.30382 0.62864,4.81779 2.93253,5.65491 1.25658,0.41862 2.51309,0.20931 3.56036,-0.41863 1.04727,-0.62864 1.88525,-1.67591 2.30381,-2.93252 0.20932,-0.83796 0.20932,-1.88527 0,-2.72325 -1.04727,-2.72325 -1.04727,-5.86506 -0.20931,-8.58743 l 0.41863,-1.6759 c 0.83795,-2.72325 3.1418,-4.39836 6.07432,-4.60763 h 1.04727 0.41863 c 3.1418,0.41862 5.44562,3.14181 5.23634,6.28361 l -0.41863,18.43191 c 0,3.35108 -1.25658,6.49288 -3.56036,9.00685 -2.30382,2.5131 -2.09454,6.2836 0.41863,8.58742 1.04726,0.83796 2.30381,1.4659 3.77051,1.4659 1.67591,0.20931 3.1418,-0.41863 4.39835,-1.4659 1.25655,-1.04727 2.09454,-2.72325 2.09454,-4.39835 0,-1.46589 -0.41863,-2.93252 -1.4659,-3.97979 -2.09454,-2.51309 -3.35108,-5.65489 -3.35108,-9.00686 l 0.20931,-15.91828 c 0,-4.39836 3.35108,-8.16888 7.74943,-8.79672 3.35109,-0.41862 6.49289,-1.25657 9.63469,-2.51309 4.18907,-1.4659 9.00685,0.20931 11.10139,4.18908 l 6.91232,12.56721 c 1.6759,2.93252 2.09453,6.07433 1.46589,9.42541 -0.62864,2.93252 1.4659,5.65489 4.39835,6.28361 2.93253,0.62863 5.6549,-1.4659 6.28361,-4.39836 0.41863,-2.51309 -0.83796,-5.02705 -3.35108,-6.07432 -2.93253,-1.25658 -5.44562,-3.35109 -7.1216,-6.28361 l -8.37814,-14.87103 c -1.4659,-2.72324 -0.62864,-6.07433 1.67591,-7.95958 l 0.62864,-0.41863 c 2.51309,-1.88525 6.07432,-1.4659 8.16886,0.62864 l 2.09384,2.09174 c 2.09453,2.09454 3.35108,4.60763 3.77051,7.54016 0.20931,0.83795 0.62864,1.67591 1.25658,2.30381 1.4659,1.25659 3.77051,1.25659 5.44562,0 0.83795,-0.83794 1.46589,-1.88526 1.46589,-2.93252 0,-1.04727 -0.41862,-2.30382 -1.25658,-3.14181 -0.62864,-0.62863 -1.25658,-1.04726 -2.09453,-1.25657 -2.72325,-0.62865 -5.44562,-2.09454 -7.33088,-3.9798 l -0.41862,-0.62796 c -2.09454,-2.30382 -2.30382,-5.65489 -0.41863,-8.16886 l 0.62864,-0.83796 c 1.88525,-2.51309 5.44562,-3.1418 8.16886,-1.4659 l 14.45247,8.79671 c 2.72324,1.67591 5.02706,4.39834 6.07433,7.33088 0.41863,1.25657 1.25658,2.3038 2.51309,2.93252 2.5131,1.4659 5.6549,0.62863 7.1216,-1.67591 1.6759,-2.5131 1.04727,-5.86505 -1.4659,-7.54015 -1.04727,-0.62864 -2.30382,-0.83796 -3.56036,-0.62864 -3.1418,0.41862 -6.49289,-0.20932 -9.21613,-1.88527 l -14.66175,-8.79669 c -2.72324,-1.6759 -3.77051,-5.02706 -2.51309,-7.74943 0,-0.20932 0.20931,-0.41863 0.20931,-0.62865 1.25658,-2.93252 4.39835,-4.39834 7.33087,-3.56035 l 0.83796,0.20931 c 2.72324,0.83795 5.23634,2.30381 7.12159,4.60763 0.62864,0.62864 1.25659,1.04727 2.09454,1.46589 2.09453,0.41863 4.18907,-0.62864 4.81778,-2.72324 0.41863,-1.04726 0.20931,-2.30382 -0.20931,-3.1418 -0.83796,-1.88526 -2.93253,-2.72325 -4.81778,-1.88526 -2.72325,0.83795 -5.6549,0.83795 -8.37815,0 l -0.83795,-0.20931 c -2.93252,-0.83796 -4.81778,-3.77052 -4.39835,-6.91232 l 0.20931,-1.04727 c 0.41863,-3.14181 3.14181,-5.23634 6.07433,-5.23634 l 16.75628,0.20932 c 3.35109,0 6.70217,1.25658 9.21614,3.35107 2.30381,1.88527 5.65489,1.67592 7.54014,-0.62863 1.67592,-2.09454 1.67592,-5.02706 -0.20931,-7.1216 -1.04931,-1.46385 -2.51518,-2.09244 -3.98171,-2.09244 z"
     fill="#305699"
     id="path1088"
     style="stroke-width:0.174544"
     clip-path="url(#clipPath1205)"
     transform="matrix(0.65276587,0,0,-0.65276587,-595.23204,84.369464)"
     inkscape:export-filename="/home/catherine/Documents/epiplots/man/figures/logo.svg"
     inkscape:export-xdpi="200"
     inkscape:export-ydpi="200" /><circle
     style="fill:none;stroke:#686868;stroke-width:1.30553;stroke-linejoin:round;stroke-miterlimit:4;stroke-dasharray:none;stroke-opacity:1"
     id="path1474"
     cx="-421.13074"
     cy="384.44702"
     r="2.1577876"
     inkscape:export-filename="/home/catherine/Documents/epiplots/man/figures/logo.svg"
     inkscape:export-xdpi="200"
     inkscape:export-ydpi="200" /><circle
     style="fill:none;stroke:#686868;stroke-width:1.30553;stroke-linejoin:round;stroke-miterlimit:4;stroke-dasharray:none;stroke-opacity:1"
     id="path1474-1"
     cx="-377.53738"
     cy="375.80115"
     r="2.1577876"
     inkscape:export-filename="/home/catherine/Documents/epiplots/man/figures/logo.svg"
     inkscape:export-xdpi="200"
     inkscape:export-ydpi="200" /><circle
     style="fill:none;stroke:#686868;stroke-width:1.30553;stroke-linejoin:round;stroke-miterlimit:4;stroke-dasharray:none;stroke-opacity:1"
     id="path1474-7"
     cx="-363.09171"
     cy="373.29068"
     r="2.1577876"
     inkscape:export-filename="/home/catherine/Documents/epiplots/man/figures/logo.svg"
     inkscape:export-xdpi="200"
     inkscape:export-ydpi="200" /><circle
     style="fill:none;stroke:#686868;stroke-width:1.30553;stroke-linejoin:round;stroke-miterlimit:4;stroke-dasharray:none;stroke-opacity:1"
     id="path1474-9"
     cx="-406.55389"
     cy="368.52228"
     r="2.1577876"
     inkscape:export-filename="/home/catherine/Documents/epiplots/man/figures/logo.svg"
     inkscape:export-xdpi="200"
     inkscape:export-ydpi="200" /><path
     style="fill:none;stroke:#686868;stroke-width:1.29642;stroke-linecap:butt;stroke-linejoin:miter;stroke-miterlimit:4;stroke-dasharray:none;stroke-opacity:1"
     d="m -419.57395,382.71366 11.54255,-12.55025"
     id="path4621"
     inkscape:export-filename="/home/catherine/Documents/epiplots/man/figures/logo.svg"
     inkscape:export-xdpi="200"
     inkscape:export-ydpi="200" /><path
     style="fill:none;stroke:#686868;stroke-width:1.30553;stroke-linecap:butt;stroke-linejoin:miter;stroke-miterlimit:4;stroke-dasharray:1.30553, 1.30553;stroke-dashoffset:0;stroke-opacity:1"
     d="m -404.24085,369.01292 24.55701,6.23086"
     id="path4623"
     inkscape:export-filename="/home/catherine/Documents/epiplots/man/figures/logo.svg"
     inkscape:export-xdpi="200"
     inkscape:export-ydpi="200" /><path
     style="fill:none;stroke:#686868;stroke-width:1.30553;stroke-linecap:butt;stroke-linejoin:miter;stroke-miterlimit:4;stroke-dasharray:none;stroke-opacity:1"
     d="m -375.16021,375.60468 9.83556,-1.52127"
     id="path4738"
     inkscape:export-filename="/home/catherine/Documents/epiplots/man/figures/logo.svg"
     inkscape:export-xdpi="200"
     inkscape:export-ydpi="200" /><text
     xml:space="preserve"
     style="font-style:normal;font-variant:normal;font-weight:bold;font-stretch:normal;font-size:9.33333px;line-height:1.25;font-family:Arial;-inkscape-font-specification:'Arial, Bold';font-variant-ligatures:normal;font-variant-caps:normal;font-variant-numeric:normal;font-variant-east-asian:normal;fill:#000000;fill-opacity:1;stroke:none;stroke-width:0.198381"
     x="-410.14691"
     y="421.5513"
     id="text22359-1-5"
     inkscape:export-filename="/home/catherine/Documents/epiplots/man/figures/logo.svg"
     inkscape:export-xdpi="200"
     inkscape:export-ydpi="200"><tspan
       sodipodi:role="line"
       id="tspan22357-8-9"
       x="-410.14691"
       y="421.5513"
       style="font-style:normal;font-variant:normal;font-weight:bold;font-stretch:normal;font-size:9.33333px;font-family:Arial;-inkscape-font-specification:'Arial, Bold';font-variant-ligatures:normal;font-variant-caps:normal;font-variant-numeric:normal;font-variant-east-asian:normal;fill:#ffffff;stroke-width:0.198381">epiplots</tspan></text></svg>
